<?xml version="1.0" encoding="UTF-8"?>
<svg id="Layer_1" data-name="Layer 1" xmlns="http://www.w3.org/2000/svg" viewBox="0 0 130 130">
  <defs>
    <style>
      .cls-1 {
        fill: #d3d3d3;
      }
      .cls-1, .cls-2, .cls-3 {
        stroke-width: 0px;
      }
      .cls-2 {
        fill: #fff;
      }
      .cls-3 {
        fill: #e06a26;
      }
    </style>
  </defs>
  <g id="map">
    <g>
      <g id="icon">
        <path class="cls-1" d="M80.68,46.14v5.33h3.71v23.83h-27.7v-23.83l-1.85-8.08v34.57h42.42v7.92h-42.42v10.58h-7.36v-23.83h-14.72v-7.92h14.78v-13.25h3.71v-5.33h-22.2v55.65h71.92v-55.65h-20.28ZM32.75,51.47h12.92v10.58h-12.92v-10.58ZM45.61,96.46h-12.92v-21.16h12.98l-.06,21.16ZM97.25,96.46h-40.57l.28-7.92h40.29s0,7.92,0,7.92ZM97.25,75.3h-11.07v-23.83h11.07s0,23.83,0,23.83Z"/>
      </g>
      <g id="icon-2" data-name="icon">
        <path class="cls-3" d="M54.9,37.51c0-6.07,4.95-11.02,11.09-11.02s11.09,4.95,11.09,11.02-4.95,11.02-11.09,11.02-11.09-4.88-11.09-11.02ZM47.15,38.9c0,4.6,5.65,14.3,5.65,14.3l13.18,22.04,12.42-22.04s6.35-9.77,6.35-14.3c0-10.32-8.44-18.7-18.84-18.7s-18.77,8.37-18.77,18.7Z"/>
      </g>
    </g>
  </g>
</svg>
